# xmcd
#
# Track frame offsets:
#	150
#	23099
#	35276
#	54278
#	64685
#	74830
#	89919
#	104396
#	117855
#	127587
#	148677
#	159872
#	173469
#	184725
#	198360
#	211478
#	223184
#	237627
#
# Disc length: 3344 seconds
#
# Revision: 0
# Processed by: cddbd v1.5.2PL0 Copyright (c) Steve Scherf et al.
# Submitted via: dBpowerAMP V4.0
#
DISCID=040d0e12
DTITLE=Townes van Zandt - Buckskin Stallion CD 2
DYEAR=2005
DGENRE=Country
TTITLE0=Silver ships of Andilar
TTITLE1=Snow don't fall
TTITLE2=You are not needed now
TTITLE3=Greensboro woman
TTITLE4=Highway kind
TTITLE5=Standin'
TTITLE6=No deal
TTITLE7=When he offers his hand
TTITLE8=Blue Ridge mountain
TTITLE9=(Quicksilver daydreams of) Maria
TTITLE10=Columbine
TTITLE11=Dollar bill blues
TTITLE12=Rex's blues
TTITLE13=Pueblo waltz
TTITLE14=Brother flower
TTITLE15=Snake song
TTITLE16=When she don't need me
TTITLE17=Buckskin stallion blues
EXTD=
EXTT0=
EXTT1=
EXTT2=
EXTT3=
EXTT4=
EXTT5=
EXTT6=
EXTT7=
EXTT8=
EXTT9=
EXTT10=
EXTT11=
EXTT12=
EXTT13=
EXTT14=
EXTT15=
EXTT16=
EXTT17=
PLAYORDER=
